<?xml version="1.0" standalone="no"?><!DOCTYPE svg PUBLIC "-//W3C//DTD SVG 1.1//EN" "http://www.w3.org/Graphics/SVG/1.1/DTD/svg11.dtd"><svg t="1569761957624" class="icon" viewBox="0 0 1024 1024" version="1.1" xmlns="http://www.w3.org/2000/svg" p-id="11991" width="32" height="32" xmlns:xlink="http://www.w3.org/1999/xlink"><defs><style type="text/css"></style></defs><path d="M796.999314 284.964571 420.392229 661.500343 227.000686 468.072229l-51.713829 51.713829L394.536229 739.072c7.1424 7.1424 16.4992 10.7136 25.857829 10.7136s18.7136-3.5712 25.857829-10.7136l402.464914-402.3936L796.999314 284.964571z" p-id="11992" fill="#cb693c"></path><path d="M512 0C229.215086 0 0 229.215086 0 512s229.215086 512 512 512 512-229.215086 512-512S794.784914 0 512 0zM512 987.428571C249.857829 987.428571 36.571429 774.142171 36.571429 512S249.857829 36.571429 512 36.571429s475.428571 213.2864 475.428571 475.428571S774.142171 987.428571 512 987.428571z" p-id="11993" fill="#cb693c"></path></svg>