<?xml version="1.0" standalone="no"?><!DOCTYPE svg PUBLIC "-//W3C//DTD SVG 1.1//EN" "http://www.w3.org/Graphics/SVG/1.1/DTD/svg11.dtd"><svg t="1569761981451" class="icon" viewBox="0 0 1024 1024" version="1.1" xmlns="http://www.w3.org/2000/svg" p-id="12354" xmlns:xlink="http://www.w3.org/1999/xlink" width="32" height="32"><defs><style type="text/css"></style></defs><path d="M923.6 331.727c-22.855-45.641-55.46-86.532-96.906-121.539-84.152-71.076-195.704-110.22-314.105-110.22s-229.953 39.144-314.104 110.22c-41.447 35.006-74.051 75.897-96.907 121.539-23.89 47.704-36.003 98.432-36.003 150.773 0 92.024 38.648 180.917 108.826 250.305 65.809 65.068 155.602 109.366 253.822 125.425l61.716 61.717a32.029 32.029 0 0 0 45.299 0l61.717-61.717c98.22-16.059 188.013-60.357 253.821-125.426 70.178-69.387 108.825-158.28 108.825-250.304 0.001-52.341-12.112-103.069-36.001-150.773zM577.241 796.438a32.025 32.025 0 0 0-18.156 9.065l-46.496 46.495-46.495-46.495a32.025 32.025 0 0 0-18.157-9.065C263.502 770.311 129.638 638.28 129.638 482.5c0-175.604 171.791-318.469 382.95-318.469 211.16 0 382.951 142.864 382.951 318.469 0 155.779-133.863 287.81-318.298 313.938z" p-id="12355" fill="#4f92af"></path><path d="M321.005 446.903m-64 0a64 64 0 1 0 128 0 64 64 0 1 0-128 0Z" p-id="12356" fill="#4f92af"></path><path d="M511.333 446.903m-64 0a64 64 0 1 0 128 0 64 64 0 1 0-128 0Z" p-id="12357" fill="#4f92af"></path><path d="M704.137 446.903m-64 0a64 64 0 1 0 128 0 64 64 0 1 0-128 0Z" p-id="12358" fill="#4f92af"></path></svg>