<?xml version="1.0" standalone="no"?><!DOCTYPE svg PUBLIC "-//W3C//DTD SVG 1.1//EN" "http://www.w3.org/Graphics/SVG/1.1/DTD/svg11.dtd"><svg t="1569742284225" class="icon" viewBox="0 0 1024 1024" version="1.1" xmlns="http://www.w3.org/2000/svg" p-id="4114" width="48" height="48" xmlns:xlink="http://www.w3.org/1999/xlink"><defs><style type="text/css"></style></defs><path d="M929.047273 410.065455a43.52 43.52 0 0 0-36.072728-29.09091l-237.14909-36.072727-106.123637-225.047273a40.029091 40.029091 0 0 0-75.403636 0l-106.123637 225.047273-237.14909 36.072727a43.287273 43.287273 0 0 0-36.072728 29.323637 46.545455 46.545455 0 0 0 12.8 46.545454L279.272727 631.156364l-40.494545 247.156363a47.941818 47.941818 0 0 0 8.843636 38.4 37.469091 37.469091 0 0 0 29.556364 14.196364 46.545455 46.545455 0 0 0 23.272727-6.283636l212.247273-116.363637 212.247273 116.363637a40.261818 40.261818 0 0 0 52.130909-7.912728 47.941818 47.941818 0 0 0 8.843636-38.4L744.727273 631.156364l171.52-175.243637a46.545455 46.545455 0 0 0 12.8-45.847272z m-238.312728 186.181818a32.814545 32.814545 0 0 0-8.610909 28.16l36.770909 224.581818L526.196364 744.727273a29.323636 29.323636 0 0 0-28.392728 0l-192.698181 106.123636 36.770909-224.581818a32.116364 32.116364 0 0 0-8.610909-28.16l-155.927273-158.952727 215.505454-32.814546a30.021818 30.021818 0 0 0 23.272728-17.454545L512 183.854545l96.349091 204.101819a30.021818 30.021818 0 0 0 23.272727 17.454545l215.505455 32.814546z" p-id="4115" fill="#4284d7"></path></svg>